<?xml version="1.0" encoding="UTF-8"?>
<svg viewBox="0 0 30 30" xmlns="http://www.w3.org/2000/svg">
<path d="m27.571 15.015c0.0741-0.7702 0.1308-1.7644 0.1308-3.0122 5e-4 -3.9909-2.2683-11.065-12.702-11.065-10.433 0-12.702 7.0744-12.702 11.065 0 1.2478 0.05672 2.242 0.12985 3.0122-0.98204 0.4678-1.4902 1.5366-1.4902 2.5941 0 0.7603 0.24797 1.4746 0.6975 2.01 0.42844 0.5109 1.0045 0.8231 1.6819 0.9154 0.33516 5.4971 7.0233 8.528 11.683 8.528 4.6589 0 11.348-3.0309 11.682-8.5275 0.6783-0.0923 1.2544-0.4045 1.6828-0.915 0.4505-0.5363 0.6975-1.2506 0.6975-2.0109 0-1.0575-0.5081-2.1263-1.4916-2.5941zm0.1046 4.0055c-0.3418 0.4068-0.8368 0.6215-1.4339 0.6215h-0.4543v0.4608c0 4.9795-6.2831 8.0372-10.788 8.0372-4.5051 0-10.789-3.0572-10.789-8.0372v-0.4608h-0.45234c-0.59578 0-1.0922-0.2147-1.433-0.6215-0.30563-0.3628-0.48047-0.878-0.48047-1.4114 0-0.9544 0.53297-1.9177 1.7231-1.9177h0.35812l0.08344-0.3544c0.01453-0.0632 0.36515-1.5857 0.55687-4.8004 0.05672-0.96004 0.47953-1.3004 1.613-1.3004 0.79547 0 1.8309 0.18281 3.0295 0.39422 1.6242 0.28734 3.6478 0.64453 5.7909 0.64453 2.1441 0 4.1677-0.35719 5.7923-0.64406 1.1977-0.21188 2.2332-0.39422 3.0286-0.39422 1.1335 0 1.5553 0.34031 1.613 1.3003 0.1922 3.2138 0.5409 4.7367 0.5569 4.7996l0.0825 0.3553h0.359c1.1902 0 1.7232 0.9633 1.7232 1.9176-5e-4 0.533-0.1753 1.0482-0.48 1.411z" fill="#212121"/>
<path d="m20.858 14.062c-1.2956 0-2.3428 1.0486-2.3428 2.3437 0 1.2952 1.0472 2.3438 2.3428 2.3438 0.6216 0 1.2178-0.2469 1.6573-0.6865 0.4396-0.4395 0.6865-1.0356 0.6865-1.6573 0-0.6216-0.2469-1.2177-0.6865-1.6572-0.4395-0.4396-1.0357-0.6865-1.6573-0.6865z" fill="#212121"/>
<path d="m9.1406 18.75c1.2944 0 2.3438-1.0493 2.3438-2.3438 0-1.2944-1.0494-2.3437-2.3438-2.3437-1.2944 0-2.3437 1.0493-2.3437 2.3437 0 1.2945 1.0493 2.3438 2.3437 2.3438z" fill="#212121"/>
<path d="m18.792 22.325c-2.4445 1.6875-5.1553 1.6771-7.5844 0-0.292-0.2025-0.5559 0.1471-0.3581 0.4715 0.7401 1.2056 2.235 2.2814 4.1503 2.2814 1.9144 0 3.4102-1.0758 4.1494-2.2814 0.1992-0.3244-0.0642-0.674-0.3572-0.4715z" fill="#212121"/>
</svg>
