<?xml version="1.0" encoding="UTF-8"?>
<svg fill="none" viewBox="0 0 24 24" xmlns="http://www.w3.org/2000/svg">
<path d="m7.9892 3.4995c-0.13084 0.13395-0.20408 0.31376-0.20408 0.501s0.07324 0.36705 0.20408 0.501l7.3095 7.4985-7.3095 7.497c-0.13084 0.1339-0.20408 0.3137-0.20408 0.501 0 0.1872 0.07324 0.367 0.20408 0.501 0.06359 0.0653 0.13962 0.1172 0.22361 0.1527 0.08399 0.0354 0.17422 0.0537 0.26539 0.0537 0.09116 0 0.18139-0.0183 0.26538-0.0537 0.08399-0.0355 0.16002-0.0874 0.22362-0.1527l7.773-7.9755c0.1366-0.1401 0.213-0.3279 0.213-0.5235s-0.0764-0.3834-0.213-0.5235l-7.773-7.9755c-0.0636-0.06531-0.13963-0.11723-0.22362-0.15267-0.08399-0.03545-0.17422-0.05371-0.26538-0.05371-0.09117 0-0.1814 0.01826-0.26539 0.05371-0.08399 0.03544-0.16002 0.08736-0.22361 0.15267v-0.0015z" fill="#8D8D8D"/>
</svg>
