<?xml version="1.0" encoding="UTF-8"?>
<svg fill="none" viewBox="0 0 20 20" xmlns="http://www.w3.org/2000/svg">
<path d="m16.872 1.8133c-9e-4 -0.00891-0.0026-0.01758-0.0038-0.02633-0.0016-0.0114-0.0029-0.02281-0.0052-0.03414-2e-3 -0.01023-0.0048-0.02023-0.0074-0.03031-0.0024-0.00969-0.0046-0.01938-0.0074-0.02898-0.0031-0.00993-0.0068-0.01946-0.0102-0.02914-0.0034-0.00954-0.0066-0.01922-0.0105-0.02868-0.0038-0.00898-0.0082-0.01757-0.0123-0.0264-0.0045-0.00969-0.0088-0.01946-0.014-0.02891-0.0045-0.00844-0.0096-0.01641-0.0145-0.02461-0.0055-0.00937-0.0108-0.01875-0.0169-0.02789-0.0059-0.00883-0.0125-0.01719-0.0189-0.0257-0.0059-0.00781-0.0113-0.01586-0.0175-0.02344-0.0119-0.01443-0.0245-0.02833-0.0377-0.04164-0.0013-0.00133-0.0023-0.00281-0.0036-0.00406-0.0016-0.00157-0.0032-0.00274-0.0047-0.0043-0.0132-0.01294-0.0269-0.02529-0.0411-0.03703-0.0074-0.0061-0.0151-0.01133-0.0227-0.01695-0.0088-0.00657-0.0173-0.01336-0.0265-0.01954-0.0087-0.00585-0.0179-0.01093-0.0268-0.01632-0.0086-0.00508-0.0169-0.01039-0.0257-0.01516-0.0089-0.00477-0.0182-0.00883-0.0274-0.0132-0.0094-0.00438-0.0186-0.00907-0.0281-0.01305-0.0087-0.00352-0.0175-0.00641-0.0263-0.00961-0.0105-0.00375-0.0208-0.00781-0.0316-0.01102-0.0084-0.0025-0.017-0.00437-0.0256-0.00656-0.0112-0.00289-0.0223-0.00601-0.0337-0.00828-0.0094-0.00187-0.019-0.00289-0.0285-0.0043-0.0106-0.00156-0.0212-0.00359-0.032-0.00468-0.0158-0.00136-0.0316-0.00214-0.0475-0.00235-0.0047-7e-5 -0.0091-7e-4 -0.0138-7e-4h-3.125c-0.1658 0-0.3247 0.06585-0.4419 0.18306s-0.1831 0.27618-0.1831 0.44194 0.0659 0.32473 0.1831 0.44194 0.2761 0.18306 0.4419 0.18306h1.6161l-1.9089 1.9089c-0.6297-0.54055-1.3772-0.92602-2.1828-1.1255-0.80549-0.19946-1.6466-0.20735-2.4557-0.02306-0.80913 0.1843-1.5638 0.55566-2.2035 1.0843-0.6397 0.52863-1.1466 1.1998-1.48 1.9597-0.33344 0.75992-0.48416 1.5874-0.44005 2.4161 0.0441 0.82869 0.28181 1.6355 0.69404 2.3557s0.98751 1.3338 1.6797 1.7916c0.6922 0.4577 1.482 0.7469 2.3062 0.8442v1.6005h-1.875c-0.16576 0-0.32473 0.0658-0.44194 0.1831-0.11721 0.1172-0.18306 0.2761-0.18306 0.4419s0.06585 0.3247 0.18306 0.4419c0.11721 0.1173 0.27618 0.1831 0.44194 0.1831h1.875v1.5625c0 0.1658 0.06585 0.3247 0.18306 0.4419 0.11721 0.1173 0.27618 0.1831 0.44194 0.1831s0.32473-0.0658 0.44194-0.1831c0.11721-0.1172 0.18306-0.2761 0.18306-0.4419v-1.5625h1.875c0.1658 0 0.3247-0.0658 0.4419-0.1831 0.1173-0.1172 0.1831-0.2761 0.1831-0.4419s-0.0658-0.3247-0.1831-0.4419c-0.1172-0.1173-0.2761-0.1831-0.4419-0.1831h-1.875v-1.6005c0.91889-0.108 1.7937-0.4544 2.5374-1.0048 0.7438-0.5504 1.3307-1.2856 1.7026-2.1329 0.3719-0.84722 0.5158-1.777 0.4175-2.697-0.0984-0.92002-0.4355-1.7984-0.978-2.5479l1.9455-1.9455v1.6161c0 0.16576 0.0659 0.32473 0.1831 0.44194s0.2761 0.18306 0.4419 0.18306 0.3247-0.06585 0.4419-0.18306c0.1173-0.11721 0.1831-0.27618 0.1831-0.44194v-3.1248c0-0.02063-0.0011-0.04133-0.0031-0.06196v8e-5zm-7.4969 10.687c-0.80349 0-1.5889-0.2383-2.257-0.6847-0.66807-0.4463-1.1888-1.0808-1.4962-1.8232-0.30748-0.74232-0.38794-1.5592-0.23118-2.3472 0.15675-0.78805 0.54366-1.5119 1.1118-2.0801 0.56815-0.56815 1.292-0.95507 2.0801-1.1118s1.6048-0.0763 2.3472 0.23118c0.7423 0.30748 1.3768 0.82818 1.8232 1.4963 0.4463 0.66807 0.6846 1.4535 0.6846 2.257-0.0012 1.0771-0.4296 2.1097-1.1912 2.8713s-1.7942 1.19-2.8713 1.1912z" fill="#8D8D8D"/>
</svg>
