<?xml version="1.0" encoding="UTF-8"?>
<svg viewBox="0 0 30 30" xmlns="http://www.w3.org/2000/svg">
<path d="m29.062 17.58c0-0.8798-0.4186-1.7653-1.2248-2.235 0.1832-0.9136 0.3178-1.9706 0.3178-3.1566-5e-4 -5.1567-3.6844-11.251-13.156-11.251-9.472 0-13.155 6.0942-13.155 11.251 0 1.1855 0.13453 2.2421 0.31781 3.1557-0.80765 0.4697-1.2253 1.3561-1.2253 2.2359 0 0.9853 0.52734 1.9739 1.5361 2.3803-1.1002 2.0728-1.5647 5.0499-0.41531 7.1503 0.49734 0.9089 5.0152 3.8058 6.5156 0.1603 1.7156 0.8138 3.848 1.3257 6.4261 1.3257s4.7095-0.5119 6.4252-1.3257c1.5014 3.6455 6.0187 0.7491 6.5165-0.1603 1.148-2.1 0.6839-5.0765-0.4167-7.1503 1.0092-0.4064 1.5375-1.3945 1.5375-2.3803zm-14.058-14.768c6.937 0 11.563 3.7505 11.563 8.4384 0 0-1.388-7.0317-11.563-7.0317-10.175 0-12.026 7.0317-12.026 7.0317 0-4.6879 5.0883-8.4384 12.026-8.4384zm11.035 16.408v0.4688c0 3.3098-3.4251 7.9697-11.04 7.9697-7.6153 0-11.04-4.6599-11.04-7.9697v-0.4688h-0.45328c-1.148 0-1.6617-0.824-1.6617-1.6406s0.51375-1.6406 1.6617-1.6406h0.08625l0.08063-0.0328c0.04312-0.0174 3.9497-1.6721 3.9075-6.5236 4.4414 4.3003 16.002 5.0264 18.459 5.1337v1.4231h0.4542c1.1471 0 1.6618 0.8241 1.6618 1.6407 0 0.8165-0.5147 1.6406-1.6618 1.6406h-0.4542v-5e-4z" fill="#212121"/>
<path d="m20.859 19.455c1.2944 0 2.3437-1.0493 2.3437-2.3438 0-1.2944-1.0493-2.3437-2.3437-2.3437s-2.3438 1.0493-2.3438 2.3437c0 1.2945 1.0494 2.3438 2.3438 2.3438z" fill="#212121"/>
<path d="m9.1406 19.455c1.2944 0 2.3438-1.0493 2.3438-2.3438 0-1.2944-1.0494-2.3437-2.3438-2.3437-1.2944 0-2.3437 1.0493-2.3437 2.3437 0 1.2945 1.0493 2.3438 2.3437 2.3438z" fill="#212121"/>
<path d="m18.792 22.561c-2.4445 1.6875-5.1562 1.6772-7.5853 0-0.2911-0.2025-0.555 0.1472-0.3572 0.4716 0.7387 1.2056 2.235 2.2814 4.1494 2.2814 1.9153 0 3.4111-1.0758 4.1503-2.2814 0.1992-0.3244-0.0642-0.6741-0.3572-0.4716z" fill="#212121"/>
</svg>
