<svg id="Capa_1" data-name="Capa 1" xmlns="http://www.w3.org/2000/svg" xmlns:xlink="http://www.w3.org/1999/xlink" viewBox="0 0 258 370"><defs><style>.cls-1{fill:none;}.cls-2,.cls-5{fill:#a28eec;fill-rule:evenodd;}.cls-2{isolation:isolate;}.cls-2,.cls-4{opacity:0.25;}.cls-3{clip-path:url(#clip-path);}</style><clipPath id="clip-path"><rect class="cls-1" x="171" y="110" width="62.36" height="11"/></clipPath></defs><path class="cls-2" d="M231.5,326a1.5,1.5,0,0,1-.83-.25,1.55,1.55,0,0,1-.56-.68,1.49,1.49,0,0,1-.08-.86,1.49,1.49,0,0,1,1.18-1.18,1.49,1.49,0,0,1,.86.08,1.55,1.55,0,0,1,.68.56A1.5,1.5,0,0,1,231.5,326Zm0-20a1.5,1.5,0,0,1-.83-.25,1.55,1.55,0,0,1-.56-.68,1.49,1.49,0,0,1-.08-.86,1.49,1.49,0,0,1,1.18-1.18,1.49,1.49,0,0,1,.86.08,1.55,1.55,0,0,1,.68.56A1.5,1.5,0,0,1,231.5,306Zm0-20a1.5,1.5,0,0,1-.83-.25,1.55,1.55,0,0,1-.56-.68,1.49,1.49,0,0,1-.08-.86,1.49,1.49,0,0,1,1.18-1.18,1.49,1.49,0,0,1,.86.08,1.55,1.55,0,0,1,.68.56A1.5,1.5,0,0,1,231.5,286ZM219,326a1.5,1.5,0,0,1-.83-.25,1.55,1.55,0,0,1-.56-.68,1.49,1.49,0,0,1-.08-.86,1.49,1.49,0,0,1,1.18-1.18,1.49,1.49,0,0,1,.86.08,1.55,1.55,0,0,1,.68.56A1.5,1.5,0,0,1,219,326Zm0-20a1.5,1.5,0,0,1-.83-.25,1.55,1.55,0,0,1-.56-.68,1.49,1.49,0,0,1-.08-.86,1.49,1.49,0,0,1,1.18-1.18,1.49,1.49,0,0,1,.86.08,1.55,1.55,0,0,1,.68.56A1.5,1.5,0,0,1,219,306Zm0-20a1.5,1.5,0,0,1-.83-.25,1.55,1.55,0,0,1-.56-.68,1.49,1.49,0,0,1-.08-.86,1.49,1.49,0,0,1,1.18-1.18,1.49,1.49,0,0,1,.86.08,1.55,1.55,0,0,1,.68.56A1.5,1.5,0,0,1,219,286Zm-12.5,40a1.5,1.5,0,0,1-.83-.25,1.55,1.55,0,0,1-.56-.68,1.49,1.49,0,0,1-.08-.86,1.49,1.49,0,0,1,1.18-1.18,1.49,1.49,0,0,1,.86.08,1.55,1.55,0,0,1,.68.56A1.5,1.5,0,0,1,206.5,326Zm0-20a1.5,1.5,0,0,1-.83-.25,1.55,1.55,0,0,1-.56-.68,1.49,1.49,0,0,1-.08-.86,1.49,1.49,0,0,1,1.18-1.18,1.49,1.49,0,0,1,.86.08,1.55,1.55,0,0,1,.68.56A1.5,1.5,0,0,1,206.5,306Zm0-20a1.5,1.5,0,0,1-.83-.25,1.55,1.55,0,0,1-.56-.68,1.49,1.49,0,0,1-.08-.86,1.49,1.49,0,0,1,1.18-1.18,1.49,1.49,0,0,1,.86.08,1.55,1.55,0,0,1,.68.56A1.5,1.5,0,0,1,206.5,286ZM194,326a1.5,1.5,0,0,1-.83-.25,1.55,1.55,0,0,1-.56-.68,1.49,1.49,0,0,1-.08-.86,1.49,1.49,0,0,1,1.18-1.18,1.49,1.49,0,0,1,.86.08,1.55,1.55,0,0,1,.68.56A1.5,1.5,0,0,1,194,326Zm0-20a1.5,1.5,0,0,1-.83-.25,1.55,1.55,0,0,1-.56-.68,1.49,1.49,0,0,1-.08-.86,1.49,1.49,0,0,1,1.18-1.18,1.49,1.49,0,0,1,.86.08,1.55,1.55,0,0,1,.68.56A1.5,1.5,0,0,1,194,306Zm0-20a1.5,1.5,0,0,1-.83-.25,1.55,1.55,0,0,1-.56-.68,1.49,1.49,0,0,1-.08-.86,1.49,1.49,0,0,1,1.18-1.18,1.49,1.49,0,0,1,.86.08,1.55,1.55,0,0,1,.68.56A1.5,1.5,0,0,1,194,286Zm-12.5,40a1.5,1.5,0,0,1-.83-.25,1.55,1.55,0,0,1-.56-.68,1.49,1.49,0,0,1-.08-.86,1.49,1.49,0,0,1,1.18-1.18,1.49,1.49,0,0,1,.86.08,1.55,1.55,0,0,1,.68.56A1.5,1.5,0,0,1,181.5,326Zm0-20a1.5,1.5,0,0,1-.83-.25,1.55,1.55,0,0,1-.56-.68,1.49,1.49,0,0,1-.08-.86,1.49,1.49,0,0,1,1.18-1.18,1.49,1.49,0,0,1,.86.08,1.55,1.55,0,0,1,.68.56A1.5,1.5,0,0,1,181.5,306Zm0-20a1.5,1.5,0,0,1-.83-.25,1.55,1.55,0,0,1-.56-.68,1.49,1.49,0,0,1-.08-.86,1.49,1.49,0,0,1,1.18-1.18,1.49,1.49,0,0,1,.86.08,1.55,1.55,0,0,1,.68.56A1.5,1.5,0,0,1,181.5,286Z"/><g class="cls-3"><g class="cls-4"><path class="cls-5" d="M225,110l8.36,5.5L225,121Z"/><path class="cls-5" d="M211.5,110l8.36,5.5L211.5,121Z"/><path class="cls-5" d="M198,110l8.36,5.5L198,121Z"/><path class="cls-5" d="M184.5,110l8.36,5.5L184.5,121Z"/><path class="cls-5" d="M171,110l8.36,5.5L171,121Z"/></g></g></svg>